<mxfile host="app.diagrams.net" modified="2024-06-18T08:35:21.835Z" agent="Mozilla/5.0 (Windows NT 10.0; Win64; x64) AppleWebKit/537.36 (KHTML, like Gecko) Chrome/126.0.0.0 Safari/537.36 Edg/126.0.0.0" version="24.5.5" etag="K4KYESCtLBTGki4GY-xv" type="github">
  <diagram name="第 1 页" id="b-2bc2k0mpaufndJJfF9">
    <mxGraphModel>
      <root>
        <mxCell id="0" />
        <mxCell id="1" parent="0" />
      </root>
    </mxGraphModel>
  </diagram>
</mxfile>
